<svg xmlns="http://www.w3.org/2000/svg" viewBox="0 0 1984.25 270.38"><defs><style>.cls-1,.cls-2{fill:#231f20;}.cls-1{fill-rule:evenodd;}</style></defs><title>Asset 1</title><g id="Layer_2" data-name="Layer 2"><g id="Layer_1-2" data-name="Layer 1"><path class="cls-1" d="M59,175.42,159,85.54a30.26,30.26,0,0,1,0,4.18V174h43.09V70.73q0-26.4-14.18-41.16t-41-14.74H23.21V58.76h108.2L33.82,146.91Z"/><path class="cls-1" d="M224.33,188.68c-5.67,3.74-13.78,5.82-22.93,5.74l-2.69-.06c-3.17,0-7.69.08-12.45.17s-9.91.22-13.58.2c-2.54,0-11.9,0-15.18.1l-71.92-3.3c-3,0-6-.12-9.06-.21-3.85-.1-7.68-.21-11.51-.25-13.66-.11-28,.71-40.3,7.33-10,5.4-21,16.42-22.75,27l-.3,1.45C.2,234.62-.11,239.06,0,241.59c9.42-6.73,22.28-7.67,35-7.57,1.89,0,3.74.22,5.58.09a31.22,31.22,0,0,1,5,.08l31.26.23c3.85,0,7.75.1,11.68.18s54.29,3.13,58.3,3.17c18,.14,37-.57,53.36-6.7h0a35.36,35.36,0,0,0,21.3-21.79c2.36-6.27,4.09-16,2.89-20.59"/><path class="cls-1" d="M312.27,173.41H416.7v-43.9H328.49c-9.64,0-16.25-2.34-19.92-7s-5.44-11.24-5.44-19.74v-9H254.83v23.73q0,26.42,14.76,41.16t42.68,14.74"/><path class="cls-1" d="M362.94,65.73q5.44,7,5.45,19.74v6H416.7V70.73q0-26.41-14.76-41.16T359.26,14.84H254.82v43.9H343c9.64,0,16.26,2.35,19.9,7"/><path class="cls-1" d="M360.19,87.82c.43-1.57,1.84-8.33,0-9.91-2.08,2.86-5.61,2.76-8.82,2.87s-6.45,0-9.66.25l-7,0c-5.93-.08-12.11-.88-17.19,2.92-2.95,2.19-6.12,6.56-6.62,11-.18,1.44-1.09,7.31.11,8.35,3.07-4.43,8.65-3.82,12.83-3.82h7.79c7.35,0,15.49.84,22.2-2.68,3.45-1.8,5.44-5.28,6.35-8.9"/><path class="cls-1" d="M347.24,99.34h0"/><path class="cls-1" d="M482.87,171.29c0-2.84-.14-6.91-.29-11.2s-.3-8.93-.3-12.21c0-2.33-.05-10.72-.23-13.69L482.13,81q.06-4.07.17-8.16c.07-3.47.14-6.92.14-10.37,0-12.3-.93-25.19-7.76-36.25-5.55-9-16.81-18.81-27.59-20.29l-1.48-.23c-7.87-1.28-12.37-1.5-14.93-1.38,6.9,8.44,8,20,8,31.42,0,1.7,0,3.38-.06,5s0,3,0,4.49V73.4c0,3.48,0,7-.08,10.52s-.08,7.18-.08,10.78c0,16.26.88,63.46,7.24,78.16,5.08,11.64,14.87,16.75,22.28,19,6.35,2.1,16.25,3.57,20.92,2.47-3.86-5.09-6-12.35-6-20.61,0,0,0-1.86,0-2.46"/><path class="cls-1" d="M1040.44,171.29c0-2.84-.14-6.91-.29-11.2s-.3-8.93-.3-12.21c0-2.33-.05-10.72-.22-13.69L1039.7,81q.06-4.07.17-8.16c.07-3.47.14-6.92.14-10.37,0-12.3-.93-25.19-7.76-36.25-5.55-9-16.81-18.81-27.59-20.29l-1.48-.23c-7.87-1.28-12.37-1.5-14.93-1.38,6.9,8.44,8,20,8,31.42,0,1.7,0,3.38-.06,5s0,3,0,4.49V73.4c0,3.48,0,7-.08,10.52S996,91.1,996,94.7c0,16.26.88,63.46,7.24,78.16,5.08,11.64,14.87,16.75,22.28,19,6.36,2.1,16.25,3.57,20.92,2.47-3.86-5.09-6-12.35-6-20.61,0,0,0-1.86,0-2.46"/><path class="cls-1" d="M820.93,29.58q-14.17,14.75-14.18,41.16V121.4h.11q.82,24.14,14.14,38,14.17,14.72,41,14.73H976.74V130.2H877.57q-13.89,0-19.11-7c-3.49-4.65-5.26-11.24-5.26-19.74v-20q.39-11.28,5.18-17.7,5.26-7,19.12-7h99.24V14.84H861.92q-26.81,0-41,14.74"/><path class="cls-2" d="M683.43,29.33q-14.19-14.73-41-14.75H529.88V58.51h97.06l-67.8,61.25-29.79,26.91,25.22,28.51,99.68-89.65v43.19c0,5.34-1.46,11.35-5.33,15.3-4.76,4.84-11,5.42-17.51,5.42H614.82v43.91H646q25.15,0,38.46-14.74a45.39,45.39,0,0,0,6.07-8.62q6.12-11.14,7-26.81V70.49q0-26.41-14.18-41.16"/><path class="cls-1" d="M762.16,171.29c0-2.84-.14-6.91-.29-11.2s-.3-8.93-.3-12.21c0-2.33-.05-10.72-.22-13.69L761.43,81q.05-4.07.17-8.16c.07-3.47.15-6.92.15-10.37,0-12.3-.94-25.19-7.77-36.25-5.55-9-16.81-18.81-27.59-20.29l-1.48-.23C717,4.43,712.53,4.21,710,4.33c6.91,8.44,8,20,8,31.42,0,1.7,0,3.38-.07,5s0,3,0,4.49V73.4c0,3.48,0,7-.08,10.52s-.08,7.18-.08,10.78c0,16.26.88,63.46,7.24,78.16,5.08,11.64,14.87,16.75,22.28,19,6.35,2.1,16.25,3.57,20.92,2.47-3.86-5.09-6-12.35-6-20.61,0,0,0-1.86,0-2.46"/><path class="cls-1" d="M599.86,270.36h83.07c3.62.06,7.27,0,10.93,0,16.51,0,33.82-.85,48.72-7.14h0c11.8-5,17-14.67,19.32-21.94,2.13-6.29,3.62-16,2.48-20.63-5.16,3.81-12.54,5.81-20.89,5.81H741c-2.89,0-7-.14-11.38,0s-9,0-12.37,0H615.42c-9.24,0-15.62-2.35-19.11-7s-5.24-11.24-5.24-19.74v-5.32H544.68v20q0,26.43,14.18,41.17t41,14.74"/><path class="cls-1" d="M1142.13,270.36h83.07c3.62.06,7.27,0,10.93,0,16.51,0,33.82-.85,48.72-7.14h0c11.8-5,17-14.67,19.32-21.94,2.13-6.29,3.62-16,2.48-20.63-5.15,3.81-12.54,5.81-20.89,5.81h-2.5c-2.9,0-7-.14-11.38,0s-9,0-12.37,0H1157.69c-9.24,0-15.62-2.35-19.11-7s-5.24-11.24-5.24-19.74v-5.32H1087v20q0,26.43,14.18,41.17t41,14.74"/><path class="cls-1" d="M1328.58,205c6.37,2.09,16.26,3.57,20.92,2.46-3.86-5.09-6-12.35-6-20.61,0,0,0-1.85,0-2.44,0-2.84-.14-40.64-.29-44.93s-.29-8.93-.29-12.22c0-2.31-.07-10.72-.23-13.69l.09-23c0-2.71.09-5.43.16-8.17.07-3.46.14-6.92.14-10.36,0-12.3-.93-37.25-7.75-48.31C1328.76,13,1319,5.14,1306.28,3.18c-7.86-1.29-12.36-1.51-14.92-1.38,6.89,8.44,7.07,17.67,7.85,29.11.11,1.7.08,5.7.06,7.33s0,3,0,4.49V82.92c0,3.49,0,7-.08,10.53s-.1,7.16-.1,10.76c0,16.27.87,67.05,7.24,81.75,5.07,11.65,14.89,16.76,22.28,19"/><path class="cls-1" d="M1290.87,145.31c0-1.24,0-6.73.13-9.78q0-26.4-15-40.39t-41.77-14H1228l-.24-1.81c-4.34-16.93-7.05-21.69-14.7-30-9.2-10-23.9-14-41.77-14h-43.67c.24,0-2.56-7.24-2.9-7.84a51.68,51.68,0,0,0-4.26-6.53C1111.58,9.19,1100,2.24,1085.18.56A58.61,58.61,0,0,0,1076,0c7.06,8.61,8.14,20.42,8.14,32.05,0,1.73,0-1.19,0,.46,0,.92,0,4.17-.1,7V174.1h46.63v-93h25.63c8.65,0,15.32,1.72,20,5.17s7.08,9.73,7.08,18.84V195.4H1228V120.77a27.07,27.07,0,0,1,11.48,4.5c3.52,2.56,5.71,6.7,6.62,12.38.35,20.7,1.93,40.62,7.86,50.2,5.67,9.15,17.2,19.2,28.25,20.71l1.53.24c8,1.31,12.64,1.53,15.25,1.42-7.06-8.62-8.12-48.11-8.12-59.75,0-1.74,0-3.47,0-5.13"/><path class="cls-2" d="M1284.53,23.7c-6.61-10.71-16.37-18.55-29.08-20.52A78.56,78.56,0,0,0,1241,1.79h-.49c6.39,7.84,7,16.35,7.69,26.68,0,1.34.06,2.67.06,4,0,1.72,0,3.43,0,5.08V77.81l.17,0c14.34,2,28.41,7.76,37,19.87a47.36,47.36,0,0,1,6.12,12.59l.45-3.8.06-16c0-2.71.09-5.44.16-8.16.07-3.47.14-6.93.14-10.37,0-12.31-.93-37.25-7.75-48.3"/><path class="cls-2" d="M1612.49,23.7c-6.6-10.71-16.37-18.55-29.08-20.52A78.57,78.57,0,0,0,1569,1.79h-.5c6.39,7.84,7,16.35,7.69,26.68,0,1.34.05,2.67.05,4,0,1.72,0,3.43,0,5.08V76.93l.17,0c15.83,3.53,27.24,8.85,37,20.75a39.94,39.94,0,0,1,6.12,12.59l.45-3.8.06-16c0-2.71.09-5.44.16-8.16.07-3.47.14-6.93.14-10.37,0-12.31-.93-37.25-7.75-48.3"/><path class="cls-1" d="M1620.49,160c0-12.18,1.28-24.51-1.08-36.57s-8.3-23.49-18.26-30.78c-21.88-16.05-50.09-14.1-73.79-14.07-24.12,0-48.23.14-72.35.08-1.09,0-17.37-.87-17.65,0,.85-2.64,2-11,3.47-13q5.23-7,19.11-7h101.29V14.84H1444.35q-26.78,0-41,14.74t-14.17,41.16s0,50.66.11,50.66q.81,24.14,14.14,38,14.19,14.72,41,14.73h116.79V130.2H1460q-13.89,0-19.11-7c-3.2-4.25-4.93-4.12-5.2-11.62h113.37c7.74,0,17.25,1,22.5,7.32,11.45,13.68,2.54,35.18,8.42,50.84,3.78,10.06,20.77,19.2,31.83,20.71l1.54.23c8,1.31,12.64,1.54,15.25,1.42-7.06-8.62-8.12-20.42-8.12-32.05"/><path class="cls-2" d="M1695.87,185.94h-26.13V149h26.13Zm-18.46-6.2h10.79V155.21h-10.79Zm34.68,19.39h-7.78V144.06h7.78Z"/><path class="cls-2" d="M1730.42,180.39a115.27,115.27,0,0,0,15.1-1.24l.58,6.38a114.21,114.21,0,0,1-19.39,1.31h-3.83V164.47h13v-8.78h-13v-6.33h20.52v21.31h-12.91ZM1768,144v55h-7.37V171.09h-4.89v25.31h-7.25V145h7.25v19.76h4.89V144Z"/><path class="cls-2" d="M1805.6,177A20.85,20.85,0,0,1,1793,166.24a21.28,21.28,0,0,1-13.09,11.7l-4-6.15c9-2.87,13-10.09,13-17v-.66H1778V148h29.55v6.2h-10.73v.66c0,6.45,4,13.2,12.75,16.12Zm16.57,14.8v6.27h-37.5V180.22h7.78V191.8Zm-1.35-8H1813V144.05h7.84Z"/><polygon class="cls-2" points="1879.18 186.54 1879.18 192.99 1830.01 192.99 1830.01 186.54 1850.65 186.54 1850.65 178.37 1835.67 178.37 1835.67 159.75 1865.97 159.75 1865.97 153.84 1835.61 153.84 1835.61 147.57 1873.64 147.57 1873.64 165.89 1843.38 165.89 1843.38 172.04 1874.89 172.04 1874.89 178.37 1858.42 178.37 1858.42 186.54 1879.18 186.54"/><path class="cls-2" d="M1906.54,176.81a17.67,17.67,0,0,1-8.79-9.55,20.08,20.08,0,0,1-9.9,10.86l-4.26-6c7.43-3.7,10.27-10.8,10.27-17.37v-7h7.55v7c0,6.45,2.6,12.65,9.37,16Zm25.42,15v6.27H1894V180.39h7.79v11.4ZM1912.38,163H1906v-6.39h6.43V145h7.25v38.55h-7.25Zm18.22,22.2h-7.37V144.05h7.37Z"/><path class="cls-2" d="M1948.81,180.34a127.19,127.19,0,0,0,19.94-1.43l.71,6.33c-7.84,1.24-14.8,1.43-24,1.43h-4.42v-38h25.12V155h-17.39v9h15.57v6.15h-15.57ZM1984.19,144v55.15h-7.79V169.71h-9.32v-6.33h9.32V144Z"/><path class="cls-2" d="M1696.17,106.93c-6.08-1.61-10.32-5-12.8-9.36a20.15,20.15,0,0,1-13,10.74l-3.65-6.08c8.61-2.52,12.38-8.72,12.5-14.86h-10.62V81.14h10.62V75.29H1687v5.85h10.73v6.21H1687c.12,5.66,4,11.21,12.68,13.54Zm16.57,13.14c0,6.56-7.07,10.38-18.57,10.38s-18.63-3.82-18.63-10.38,7.07-10.45,18.63-10.45,18.57,3.82,18.57,10.45m-7.78,0c0-3-3.71-4.42-10.79-4.42s-10.86,1.43-10.86,4.42,3.65,4.35,10.86,4.35S1705,123,1705,120.07m-.23-29.91V75.48h7.78v33.19h-7.78V96.48h-8.43V90.15Z"/><path class="cls-2" d="M1770.58,117.62v6.32H1721.4v-6.32h20.46V105.32h7.79v12.29ZM1765.76,107c-9.56-1.72-16.52-6.86-20.06-13.67-3.54,6.75-10.44,11.94-19.93,13.67l-3.19-6.5c12.27-2,19-10.45,19-18.09V78.52h8.31v3.94c0,7.82,6.67,16.05,19.05,18.09Z"/><path class="cls-2" d="M1806.36,107.05a123.16,123.16,0,0,1-23.35,1.79h-4.37V78.93h7.73v23.45a116.4,116.4,0,0,0,19.23-1.72Zm16,16.18v6.26h-37V112.3h7.78v10.93Zm-9-25.19h-13.15V91.83h13.15V87.77h-13.15V81.56h13.15V75.48h7.78v40.41h-7.78Z"/><path class="cls-2" d="M1687.5,18.79c0,10.38,4,20.48,12.91,24.53l-4.59,6.27c-6-2.92-9.91-8.29-12.15-14.92-2.36,7-6.43,12.78-12.5,15.88l-4.84-6.33c9.21-4.3,13.33-15,13.33-25.43V10.86h7.84Zm25.18-12.23V61.71h-7.79V30.13h-10.43V23.81h10.43V6.56Z"/><path class="cls-2" d="M1749.76,34.43V38h14.75V52.16h-29.73v3.11h31.14v5.9h-38.86V46.73h29.78V43.8H1727V38h15V34.43H1721.4V28.22h49.08v6.21Zm-23.47-18c0-6,7.26-9.37,19.65-9.37s19.7,3.34,19.7,9.37-7.26,9.37-19.7,9.37-19.65-3.28-19.65-9.37m8.09,0c0,2.57,3.71,3.64,11.56,3.64s11.61-1.07,11.61-3.64-3.72-3.58-11.61-3.58-11.56,1.13-11.56,3.58"/><path class="cls-2" d="M1796.76,18.85c0,10.2,4.31,20.23,13.51,24.23l-4.43,6.39c-6.26-2.87-10.43-8.3-12.86-15-2.41,7.33-6.84,13.24-13.33,16.35L1775,44.28c9.5-4.11,14-14.75,14-25.43v-8h7.79Zm23.94,42.86h-7.78V6.56h7.78Z"/><path class="cls-2" d="M1863.68,34.79c-8.09,1.37-15.33,1.56-26.13,1.56h-4.78V19.63h17.28V15.39h-17.33V9.12h25V25.48h-17.29V30c9-.06,15.28-.29,22.37-1.49Zm3.71,4.77h7.73V60.94H1839V39.56h7.73v4.66h20.7Zm0,10.69h-20.7v4.42h20.7Zm7.73-13h-7.85V6.62h7.85Z"/><path class="cls-2" d="M1933.38,40.94h-49.07V34.67h49.07Zm-44.19-21.37c0-7,7.85-11.34,19.66-11.34s19.69,4.36,19.69,11.34-7.84,11.35-19.69,11.35-19.66-4.37-19.66-11.35m8.85,34.8h29.84v6.27h-37.63v-16H1898Zm-.82-34.8c0,3.4,4.36,5.08,11.63,5.08s11.67-1.68,11.67-5.08-4.36-5.13-11.67-5.13-11.63,1.79-11.63,5.13"/><path class="cls-2" d="M1969.75,36.29c-10.09,1.73-21.76,1.9-30.31,1.9l-.83-6.38h5.66V16.52H1940V10.25h28.67v6.27h-4.31V31c1.71-.13,3.37-.3,5-.48Zm14.5,15.1c0,6.44-7,10.27-18.63,10.27S1947,57.83,1947,51.38s7-10.26,18.57-10.26,18.63,3.76,18.63,10.26m-32.49-19.76c1.65,0,3.36-.12,5.07-.18V16.52h-5.07Zm24.71,19.76c0-2.92-3.66-4.3-10.85-4.3s-10.8,1.38-10.8,4.3,3.65,4.3,10.8,4.3,10.85-1.43,10.85-4.3M1976.24,32h-6.37V25.77h6.37v-4h-6.37V15.45h6.37V6.62H1984V40.23h-7.78Z"/></g></g></svg>